<svg xmlns="http://www.w3.org/2000/svg" viewBox="0 0 377.74 346.7"><defs><style>.cls-1{fill:#231f20;}.cls-2{stroke:#000;stroke-miterlimit:10;}</style></defs><title>Asset 1</title><g id="Layer_2" data-name="Layer 2"><g id="Layer_1-2" data-name="Layer 1"><path class="cls-1" d="M281.82,214.83c1.25-.15-.32-3.14-.36-3.77C279.8,212.47,282.17,215.63,281.82,214.83Z"/><polygon class="cls-1" points="265.59 229.02 265.44 227.62 263.85 231.8 265.59 229.02"/><path class="cls-1" d="M248,235.65c3.7,4.7,6-3.3,9.89-2.59l1,1-.21-4.84C255.08,231.37,251.23,236.11,248,235.65Z"/><path class="cls-1" d="M234.18,227.72c1.37,1.85-1.35,2.56,2.43-.2a3.41,3.41,0,0,1-.59-.37A7.92,7.92,0,0,1,234.18,227.72Z"/><path class="cls-1" d="M236,227.15c1.79-.86-1.89-1.27,0,0Z"/><path class="cls-1" d="M227.92,231.63l1.72-2.79c-1-1-3.26-.47-2.8-1.67C224.73,229.15,225.72,230.17,227.92,231.63Z"/><path class="cls-1" d="M227.11,236.41l1-1.27C227.65,234.71,227.25,234.66,227.11,236.41Z"/><path class="cls-1" d="M230.11,232.45l-2,2.69c.69.72,1.39,2.44,1-1.07C229.46,235.73,229.4,234,230.11,232.45Z"/><path class="cls-1" d="M231.94,232.68c1.82.63,3.86.68,2.13,3.47C238.45,233.62,236.32,230.14,231.94,232.68Z"/><path class="cls-1" d="M249.19,241.5l2.43.87.89-2.39C252.06,241.17,248.44,239.88,249.19,241.5Z"/><path class="cls-1" d="M211.68,234.76c.29,1.2,2,2.7,2.74,4.08l1.29-2C214.48,236.42,212.46,236.39,211.68,234.76Z"/><path class="cls-1" d="M214.42,238.84l-1.93,3C215,241.12,215.06,240,214.42,238.84Z"/><polygon class="cls-1" points="228.97 242.49 231.81 236.7 228.14 242.88 228.97 242.49"/><polygon class="cls-1" points="201.36 238.63 201.86 235.41 200.69 240.43 201.36 238.63"/><path class="cls-1" d="M194.74,241.75c.28-2.62-3-3.07-2.31-4.87-1.7,1.11-2.54,3.59-3.31,5.82C190.26,241.18,192,240.78,194.74,241.75Z"/><path class="cls-1" d="M187.69,246.07a15.77,15.77,0,0,0,1.43-3.37A8.35,8.35,0,0,0,187.69,246.07Z"/><path class="cls-1" d="M207.7,243.06c-.48-.61-1.58-2.24-3.38-2.41l2.3,2.77Z"/><path class="cls-1" d="M206.7,243.51l-.08-.09c-1.17.38-2,.62-2.35.71Z"/><path class="cls-1" d="M208,243l-.27.09C207.92,243.33,208,243.41,208,243Z"/><path class="cls-1" d="M220.81,242.34c-.89,2.4-3.44,5.58.8,7.07C221.9,246.78,219.47,246,220.81,242.34Z"/><path class="cls-1" d="M210.83,246.44l3.14-.39c-.39-.82-1.38-1.84-.94-3Z"/><polygon class="cls-1" points="209.83 247.99 210.83 246.44 209.67 246.58 209.83 247.99"/><path class="cls-1" d="M193.74,247.14c-.68,1.87-2,2.51-3.42,3.33a14.47,14.47,0,0,0,5.29-1C195.44,248.41,195.44,246.34,193.74,247.14Z"/><path class="cls-1" d="M200.15,245.65c-.06.11-.16.19-.21.29C200.22,246.15,200.38,246.18,200.15,245.65Z"/><path class="cls-1" d="M175.36,256.31c.15.14.31.34.47.49l-.16-.58Z"/><path class="cls-1" d="M196.12,250c1.46.13,1.89-.93,2.2-2.18a10.34,10.34,0,0,1-2.71,1.69C195.69,250,195.78,250.3,196.12,250Z"/><path class="cls-1" d="M184.11,249.2a13.28,13.28,0,0,0,2.8.91C185.9,249.35,184,248.28,184.11,249.2Z"/><path class="cls-1" d="M199.18,245.22c0-.07.08-.15.13-.21C198.65,244.49,198.82,244.8,199.18,245.22Z"/><path class="cls-1" d="M199.18,245.22a9.28,9.28,0,0,0-.86,2.59,7.18,7.18,0,0,0,1.62-1.87A4.58,4.58,0,0,1,199.18,245.22Z"/><path class="cls-1" d="M178.85,278.52c-.94-3,1.2-7,5.22-4.95,1.86-3.28-3.73-12.28-8.24-16.77.42,1.32.88,2.51-1.24,5.35,1.61,1.22,7.71,1.32,6.39,4.92-3.13,3-3.46.15-5.88-.69,3,3.06-2.64,7.2.29,12.29l2.52-3.19C178.3,276.3,177.64,278.11,178.85,278.52Z"/><path class="cls-1" d="M181.3,255l1-.82c-1.52,0-2.93-.81-5.58-2.44-1.36,2.2-1.32,3.45-1.07,4.48l5.86-1.82Z"/><path class="cls-1" d="M187.51,252.13c.35,3.56-1.89,6,1.17,8.82,3.31-1.55,1.33-3.61,2.81-5.8-5.16,3,.88-2.41-3.8-2.67a9.76,9.76,0,0,1,2.63-2,15.74,15.74,0,0,1-3.41-.36l.21.15h0v0c.4.31.57.53.21.4,0,.05-.06.09-.09.12a6.24,6.24,0,0,1,.23,1.3c-1.85,0-.57-.73-.23-1.3a4.87,4.87,0,0,0-.12-.52l0,0-4.8,3.92C183.65,254.17,185.07,253.51,187.51,252.13Z"/><path class="cls-1" d="M221.37,257.45a1.56,1.56,0,0,1-.47-.67C220.7,257.31,220.67,257.63,221.37,257.45Z"/><path class="cls-1" d="M218.35,256.4c.23-.6.06-2,1.49-2.2,1.5.53.59,1.54,1.06,2.58.45-1.16,1.84-3.37-1.22-4l-.22.59c-2.64-.24-7-3.14-6.83-3.73A30.82,30.82,0,0,0,218.35,256.4Z"/><path class="cls-1" d="M203.09,255.13l-4,3.37,3.41,1.86-.77-1.62C204.64,258.38,203.27,256.55,203.09,255.13Z"/><polygon class="cls-1" points="174.21 254.92 173.49 251.29 172.73 257.12 174.21 254.92"/><polygon class="cls-1" points="168.44 257.65 167.5 254.63 166.63 257.01 168.44 257.65"/><path class="cls-1" d="M96.08,190l-1.88.63A15.93,15.93,0,0,0,96.08,190Z"/><path class="cls-1" d="M93.13,193.34l3.4-1.32A26,26,0,0,0,93.13,193.34Z"/><path class="cls-1" d="M60.43,295.9c2.06-2.17,5-4.84,6.7-6.34s2.1-1.87-1,.42c-2,1.51-3.94,3-5.88,4.57C61.71,294.06,61.34,294.74,60.43,295.9Z"/><path class="cls-1" d="M76.15,237.37,75,237.06c.48,1.2.94,2.33,1.35,3.34C76.24,239.47,76.2,238.45,76.15,237.37Z"/><path class="cls-1" d="M67,226.17l3.56-.4A9.28,9.28,0,0,0,67,226.17Z"/><path class="cls-1" d="M97.27,187.62c-1.14,1.51-2.19,3-3.12,4.45C93.16,192.31,95.52,189.86,97.27,187.62Z"/><path class="cls-1" d="M108.17,282.45a9.73,9.73,0,0,0-5-.35C106,283.19,108.66,285.35,108.17,282.45Z"/><path class="cls-1" d="M170.65,157.19c-.44-.44-1.4-.26-2.77.39C168.25,158,169,158.06,170.65,157.19Z"/><path class="cls-1" d="M98.35,284c.42.21.78.26,1.18.42a7.66,7.66,0,0,1,3.68-2.29C101.19,281.29,99.15,281.08,98.35,284Z"/><path class="cls-1" d="M65.75,88.14a4.5,4.5,0,0,1,.63,0C66.13,87.77,66,87.88,65.75,88.14Z"/><path class="cls-1" d="M135.26,81.74a9.51,9.51,0,0,1-1.88,1.54C133.88,83.25,134.47,82.83,135.26,81.74Z"/><path class="cls-1" d="M144,265.58c1.18-.7.06-.43,0,0Z"/><path class="cls-1" d="M155.13,276a2.94,2.94,0,0,0,.12,1.77A3.79,3.79,0,0,1,155.13,276Z"/><path class="cls-1" d="M93.42,308.92l-.12,0C93.92,309.45,93.81,309.35,93.42,308.92Z"/><path class="cls-1" d="M146.49,266.32a6.3,6.3,0,0,0-2-.34A6.46,6.46,0,0,0,146.49,266.32Z"/><path class="cls-1" d="M145.64,264.89c.49,0,.86-.08,1.22-.12C146.81,264.17,146.53,263.89,145.64,264.89Z"/><path class="cls-1" d="M142.34,266.44a5.31,5.31,0,0,1,2.16-.46c-.33-.12-.5-.26-.48-.4C143.67,265.78,143.18,266.05,142.34,266.44Z"/><path class="cls-1" d="M18.69,187.87a1.78,1.78,0,0,1,0-.29C16.18,188.24,16.93,188.23,18.69,187.87Z"/><path class="cls-1" d="M10.34,297.3c0,.06.12.07.14.12l.24-.25Z"/><path class="cls-1" d="M9.09,292.57c4.63,1.39,3.39,2.62,1.63,4.6q6.46-2.28,13.08-4.31Q16.62,293,9.09,292.57Z"/><path class="cls-1" d="M98.27,184.59l-4.46,2.77-2.34,1.41-2.33,1.55-2.4,1.4c-.74.44-1.34.87-1.91,1.24-1.12.76-2,1.37-2.7,1.87-1.42,1-2.2,1.62-3,2.22a111.35,111.35,0,0,1-10,6.28c7.19-4.66,10.64-7,12.39-8.29A6.66,6.66,0,0,1,83.32,194a.82.82,0,0,1,.55-.1c.41.08.83.14,15.1-7.71q-3.25,2.06-6.44,4c.39-.32-1.26.57-.89.26-3.59,2.16-4.09,2.49-3,2s3.87-1.92,6.86-3.41,6.24-3.07,8.36-4,3.14-1.15,1.76-.1A52.1,52.1,0,0,1,96.08,190c1.84-.59,3.62-1.07,5.28-1.48-.88.7-5.15,2.5-4.35,1.89a6.8,6.8,0,0,1,.21,1.37l-.69.26c1.75-.6,3.91-1.26,5.84-1.79s3.66-.92,4.66-1.11c-3.94,2-2.14.53-5.19,1.8,1.48-.19,2.84-.33,4.16-.38A44.57,44.57,0,0,1,98.38,193c-1.75.37-2.58.38-1.8-.23-6,2.48-8.66,3.52-9.52,3.92s.07.14,1.22-.15a7.75,7.75,0,0,1,2.7-.43c.17.15-.91.83-4.37,2.18a14.88,14.88,0,0,0-2,0l-9.82,3.38a46.37,46.37,0,0,1-5.87,1.74c1.8-.41,6.31-1.56,11.27-3.1s10.23-3.27,12.23-3.31c-1.89.82-2.89,1.3.36,1.14-6.94,1.56-5.7,1.7-6,2.38L78.17,202c1,0,2.6-.11,4.33-.25s3.62-.3,5.22-.26c-1.76,1.09-7.89,1.64-12.94,2-.87.3,1.49.19,4.29-.06s6.06-.64,5.9.23c-3.93,1.21-1.47,1.72.23,4.36a4.55,4.55,0,0,1-3.07-.35,6.42,6.42,0,0,0-2.36-.74,27,27,0,0,1,3.75,2c-.33.19-1.59-.33-2.24-.58a10,10,0,0,0,3,1.67c1.23.55,2.37,1.15,2.27,2.23,2.58,1.41-.43,1.49-3.08,1.35a10.92,10.92,0,0,0-3.3.09c-.7.25-.84.85-.13,2.39a4.63,4.63,0,0,1-1.77-1.57,12.45,12.45,0,0,0-1.87-2c.08.28.15.55.22.81s-.13.72-.18,1L76.15,216c-.19,1-.32,1.72-.4,2.46a42.75,42.75,0,0,0,.18,6.71l-5.33.56c4.89.55,5.31,6.56,5.55,11.6A48.82,48.82,0,0,0,81,238.52l-1.88,5.77c-1.06-.13-1.92-1.75-2.81-3.89a14,14,0,0,0,.17,1.57c-2.72,0-4.11-2.74-5.15-5.75,1.19.24,2.42.54,3.63.84-1.26-3.14-2.79-6.47-5.11-8.39a3.62,3.62,0,0,1-.3,2.25,3.51,3.51,0,0,0-1.2-1.79c-.51-.24-.11,1,.18,2.52l-4.94-3.14,1.4,1.81c-2.55.84-5.08,1.79-7.63,2.7.25,3.88,1.1,8,1.45,12.24s.21,8.34-1.67,12.1c-1.72-4.29-4.75-4.92-8.35-8.33,5.4,1.89,2.72-6.22,6.45-8.66-1.93,1.26-3.32-.72-3.51-1.71L50,247.56c-2.87-2.86-3.35-.85-6-.49,7.29,3.78-.85,9.17-1.22,13.35a4.26,4.26,0,0,1-2.64-2.5c-.28-1.11.29-2.57,2.22-4.33-2.14.19-3.09,1-3.33,2.12a6.42,6.42,0,0,0,.74,3.66,10.27,10.27,0,0,1,1.11,3.46c0,1-.66,1.71-2.69,2.26.66-1,1.44-1.27.45-2.2.23,1.55-1,3.47-2.64,4.76s-3.51,2.07-4.23,1.09l.71-1a61.47,61.47,0,0,0-4.91,5.92c-.41.56-.82,1.13-1.21,1.7a11.75,11.75,0,0,0-1.05,1.73,33.11,33.11,0,0,0-1.54,3.38c-.84,2.17-1.24,4.09-.92,5.41s1.38,2.06,3.39,2c-.58.1-3.05.25-5.54.31a49,49,0,0,1-5.72-.1c.86.39,1.74.76,2.62,1.09.45.17.89.33,1.34.48a12.15,12.15,0,0,0,1.43.42q3,.76,5.91,1.29c1,.17,1.91.33,2.85.46l1.4.19c.59,0,1.23,0,1.85,0a74.69,74.69,0,0,0,7.76-.41c-2.24.5-5.4,1.38-9,2.44l-9.11,2.78c-5.64,1.66-10.61,2.82-11.6.58C8.85,299.17,7,301.54,8.19,304a26.91,26.91,0,0,1,6-3.19c2.61-1.06,5.05-1.8,5-1.28-4.77,2.95-5.9,3.94-7,4.94s-2.15,2.05-5.55,5.48c.79-1,3.64-2.07,6.1-2.62s4.46-.6,4,.57c-1.33.26-9.32,4.26-10.2,3.82L15,313.52c-1.42-.7-7.37,3.34-9.36,6.05.78-.76.9.63,1.29,2.42s1.12,3.9,2,4.47a17.49,17.49,0,0,1,.18-1.89c.09-.63.15-1.25.3-1.88A4,4,0,0,0,12.75,326a15.09,15.09,0,0,0,5.47-.23c2-.39,4-.84,5.8-1.06a10.16,10.16,0,0,1,5,.42,34.25,34.25,0,0,0-6,4.21c-2.15,1.91-3.74,4.05-2.55,5.27a156.63,156.63,0,0,0,14.91-9l1.21-.83c.08-.05.24-.18.39-.3l.44-.36.88-.71,3.42-2.79c2.22-1.81,4.31-3.6,6.2-5.18,3.79-3.18,6.76-5.77,8.64-7.12-.75,1.19-1.47,2.38-2.15,3.56,2.11-1.54,4.07-3.11,5.89-4.65-2,2.46-4.82,5.6-8.26,9.13-1.72,1.77-3.6,3.59-5.62,5.49L45,323.21l-.79.72c-.28.25-.43.36-.65.54-.83.66-1.67,1.29-2.52,1.92a93.44,93.44,0,0,1-9.94,6.52A54.7,54.7,0,0,1,23,336.72a3.75,3.75,0,0,1-.07,2.38c0,.47.26.84,2.26,1.22-.27,1.24-1.51,1.93-2.85,2.23a8.55,8.55,0,0,1-3.31,0,52.35,52.35,0,0,0,7.91,4.15c1.81-2.6,4.62-3.52,7.41-4.65.7-.27,1.38-.53,2-.83a17.38,17.38,0,0,0,1.92-1,8.08,8.08,0,0,0,2.87-2.79A70.65,70.65,0,0,1,26.76,342c1.86-2.48,6.18-5.54,10.7-8.45,2.24-1.41,4.54-2.8,6.6-3.82a13.76,13.76,0,0,1,5.31-1.76c.09,1-1.74,3.65-3.81,6.22s-4.38,5-4.91,6A10.38,10.38,0,0,1,43,338.68c1-.46,2-.89,3-1.27a13.69,13.69,0,0,1,2.59-.72c.68-.11,1.1,0,1.09.31l-2.44,1.83-2.46,1.73c.74.47,1.84.17,3.08-.52a38.4,38.4,0,0,0,3.86-2.63,13.28,13.28,0,0,1,3.6-2.11,2.2,2.2,0,0,1,2.8,1c.85,0,1.57,1.6,2.4,2.78s1.73,1.8,2.38,0c-.77-3,.57-9.95,2.54-16.82l.74-2.57.8-2.57c.55-1.74,1.1-3.41,1.63-4.95,1.05-3.07,2-5.59,2.6-7a21.93,21.93,0,0,0,1.69,3.11,49.83,49.83,0,0,1,3,4.69c.84,2.26,0,5.6-1.33,9s-2.93,6.79-1.9,8.64c.32-1.65,2.12-4.19,2.78-5.05,1.75.7-1,5.21,3.16,3a4,4,0,0,1,3.42-3.87c.58-.12,1-.16.76-.35A21,21,0,0,0,80.4,323c1.77-1.48,2.72-1.53,3.82-1.47a8.15,8.15,0,0,0,4.51-.67c-1.08-1.47-.7-4.81-.09-8a43.33,43.33,0,0,1,1.09-4.42,7.86,7.86,0,0,1,1.48-3,8.91,8.91,0,0,0,2.21,3.46c6.1-1.78,10.18-.65,15.72-2.72,1,1,4.22,1.51,3.92,4.14.45-1.21.53-3.21,2.19-4,5,3.15-3.55,2.14,1,6.48-.91-3.05,2.86-5.78,4.58-8.56-2.5-4.28-5.95,1.27-7.68,4.05-2.42-6.31-.7-14.51,3.94-19.65,4-3.32,3.55,3.31,4,2.11,9-2.21,3.07-13.81,12-12,4.39,2.91,3.23,7.92,5,10.58-3.15,3-6.72-.33-9.18.81l3.84.69c-.66,1.8-2.77,3.78-4.57,3.14,3.77,2.68,14.81-4.94,22.73-4.21.66-1.8,2.15-4,.56-5.22l-1.88,1.37c-3.19-2.47,2.2-6-1-6.48,1.93-3.37,3.69-8.16,8.36-7.89l2.53,4.28c-.61-1.31-3.65-1.71-4.22.12.86-2.68,8.49,3.8,8-2.89l-4-2.07c1.93-3.41,3.52-9.62,7.59-9.56-3.36-3.88-.6.84-5.17-3.46,4.74,5.72-9.08,3.24-2.9,8.77-5-5.12-5.45-.85-10.83-4.78.69,1.47,2.31,2.43-.92,2.83a7.22,7.22,0,0,1-.13,1.58,1.57,1.57,0,0,1-.24,0l.23.11c0,.28,0,.33.08,0a5.67,5.67,0,0,1,2.4,1.7c-.11,4-4.84,5.75-5.72,8.16-2,0,.05-2-1.53-3.25l-1.32,3.61c-1.54-3.26-6.8-3.76-3.45-7.33l-3.76,1.29c-2.91-1-6.2-.62-7.5,1.51-2,0-3,5.42-2.47,2.21l-5,4.31-.38-.81c-5.88,1.78-9.67,10.09-18.54,6.52-1.6,1.59-3.21,3.38-6.8,3.64L91,285.36c-1,1-3.18.95-5,1.1a6.87,6.87,0,0,0-2.42.53,2,2,0,0,0-.42.28c-.11.1-.27.24-.24.34a3.44,3.44,0,0,0,.09.92c-1.93-3.75-2.62-4-3.45-3.24-.4.36-.85,1-1.31,1.44-.29.4-.57.64-.71.3l-.63,4.56c-.88.08-1.91,1.69-4.14,4.18l-1.55,4.38c-1.51,2.09-2.46,1.71-3,.8s-.68-2.3-2-1.81c1.4-1.89,1.57-1.52,1.3-.51,1-2.54,1.1-3.32.45-3.09a24.16,24.16,0,0,0-3.71,2.72,27.17,27.17,0,0,1-4.79,3.23c-1.21.53-1.73.23-.22-1.95-2.54,1.77-2.42,1-1.43-.37a1.21,1.21,0,0,0,.45-.22c0-.08-.07-.11-.17-.14.72-.95,1.61-2,2.32-2.91A22.64,22.64,0,0,0,58,298.78a14.1,14.1,0,0,0-4.08,1q3.15-2.61,6.38-5.18c-.12,0-.13,0-.28.05,2.12-2.17-3.58,1.92-8.35,5.9-1.41.52-3,1.13-4.87,2,5.37-4.1,4.2-3.86,3.14-3.9-.53,0-1-.07-.6-.62s1.75-1.6,4.8-3.49a9.33,9.33,0,0,1-3.4,1,14.58,14.58,0,0,1-2.38-.17c-1.66-.14-3.84-.07-9.75,2.1,1.61-.7,2.5-1.3,2.34-.79,1.94-1.76,3.83-3.18,1.16-3q4.32-1.68,8.55-3.25a67.24,67.24,0,0,1-9.4,1.18,47.36,47.36,0,0,1,7.18-3,37.7,37.7,0,0,1,6.78-1.25,11.81,11.81,0,0,1-3.54-.34,2.56,2.56,0,0,1-1-.6,3,3,0,0,0-1-.63c-.58-.25-1.47-.5-3-1L51,284.3c.25-.44-.83-.89-1.39-1.44s-.66-1.14,1.27-1.46A14.12,14.12,0,0,0,56.25,279a21.36,21.36,0,0,0,3.57-3.42c.58-.64,1.13-1.28,1.78-1.95a24.31,24.31,0,0,1,2.27-2A14,14,0,0,1,66.42,270a8.57,8.57,0,0,1,1.39-.51l.35-.09a1.3,1.3,0,0,0,.42-.12c.33-.13.67-.26,1-.37-8.24-4.84,6.27-.63,1.22-5.81,2,1.06,3.88.89,4.18,3.39,1.89-5.27,7.81-3.2,5.93-10,2,1.11,1.54,3,2.85,3.57,0-.62-.23-2.51,1.09-2s.8,1.84.92,3.09c3.39-4-1.07-9.2-5.32-14,4.08.19,4.74-1.06,3.18-5.43,2.15.8,4.81,1.23,3,4.13a42.25,42.25,0,0,0,5.3-3.87c2-1.83,3.32-4,1.6-5.87,1.33.51,2.15-1.6,2.1-2.37l4.37-3.7a37.13,37.13,0,0,0,4.07-4.26l-1.83.64c-1.87-2.48-1.49-3.34-.24-4.11s3.38-1.46,4.53-3.11l.54.33a21.84,21.84,0,0,0,5.24-3,2.8,2.8,0,0,0,1-1.63,2.46,2.46,0,0,1,1.13-1.56,42,42,0,0,1,5.91-3.27l-5.11-.2c-4.76-1-2-2,2.16-3.78a56,56,0,0,0,6.4-3c1.9-1.12,3.28-2.3,3.09-3.26-1.48.56-3,1.1-4.39,1.61-1-1,4.23-2.56,10.54-4.76,3.17-1.09,6.42-2.27,9.22-3.4a29.17,29.17,0,0,0,5.95-2.94c1.55-.77,1,.66,1.13,1.39,3.24-2.09,4.48-3.2,4.49-3.65s-1.2-.28-2.74,0c-3.08.58-7.45,1.53-6.4-.7a48.73,48.73,0,0,1,7.18-1.66,11,11,0,0,0,6.18-3.18,2.17,2.17,0,0,0,1.37-2.39,22.78,22.78,0,0,0-1.35-2.81c-.9-2-1.09-4.18,4.87-8-4.2,2.29-8.31,4.36-9.31,3.15.58-1.4,5.49-4.89,9.24-8.08s6.3-6,1.67-4.91a24.93,24.93,0,0,1,3.3-1.92c-1.07-1.42,1.06-6.45-4.46-4.46,6.47-3.8,9.7-6.3,11.27-8.34s1.4-3.29,1-4.3-.93-1.81.12-3.28A9.68,9.68,0,0,1,177,136c.25-.24.53-.49.85-.76l.51-.42.14-.11.06-.06.14-.13a49.55,49.55,0,0,1,5.58-3.84L170.9,134l2.43-1.58A34,34,0,0,0,163,135.55a97,97,0,0,0-10.09,5.59c-.49-.62,2.23-2.21,3.26-3a21.92,21.92,0,0,0-10,1.1c-3.44,1.26-7.89,3.7-14.53,8q1.2-2.1,2.31-4.18c-2.15,1.53-4.69.64-9.22.38a34.42,34.42,0,0,0-7.89.39,25.92,25.92,0,0,0-9.06,3.24A4,4,0,0,1,109.2,145a22.93,22.93,0,0,1-10.39,2.62c-1.82.08-3.69,0-5.61,0-1.26,0-1.14-.2-1.5-.34l-.77-.44c-2-1.07-2.53-1.23-4.37,6.7a56.9,56.9,0,0,1-4.11,4.73c2.18,0,1.81,1.73.8,3.77s-2.71,4.43-1.66,5.4a2.15,2.15,0,0,1-3.21-1.19,3.08,3.08,0,0,1,1.51-3.64l.17.71c.89-2.18,1-3.34.69-4s-.9-.74-1.58-.76c-1.34,0-2.87.29-1.22-2.78a20.4,20.4,0,0,1-5.36.93,13.38,13.38,0,0,1-3.85-.41c-1-.26-1.88-.61-2.71-.84a12.27,12.27,0,0,0-3-.39q-5.16,4.33-10,8.66a11.67,11.67,0,0,1-2.2-.4c1.93-2.07,8.32-6.86,9.34-6.47,2.78-2.48.91-1.44-2.24.37s-7.52,4.4-8.88,5.34c.31-1.13,1.55-2.33,3.13-3.45A54.45,54.45,0,0,1,57.45,156c3.58-1.88,6.59-3.51,6.37-3.68a18.4,18.4,0,0,1-1.92.34l-1.24,1.08c-3,1.61-5.94,3.22-8.29,4.31a13.56,13.56,0,0,1-3,1,2.06,2.06,0,0,1-1-.08,1,1,0,0,1-.34-.19,1,1,0,0,1-.16-.36c.94-1.38,3-2.72,4.82-3.79a20.66,20.66,0,0,0,3.53-2.26c1-.55,1.35-.9.22-.85a11.65,11.65,0,0,1,1.06-3.05c-3.68,1.94-7.3,4-11,6.18-5.39,1.05,1-3.55-11.61,3.61a58.83,58.83,0,0,0,9.94-7A24.88,24.88,0,0,0,49,146.7c1.69-2.48,2.47-4.33,5.4-5.31-2.6,0-3.33-.6-3.08-1.32s1.44-1.67,2.83-2.66c-2.13.59-11.58,1.91-8.15-.35a58.79,58.79,0,0,0,9.14-.77A19.46,19.46,0,0,0,59.56,135c2.22-.9,4.13-2,10.1-2.06-4.12.15-3.6-.73-3.34-1.75a1.16,1.16,0,0,0-.49-1.46c-.66-.42-2-.78-4.82-.75a5.9,5.9,0,0,1,4.08,0,19.8,19.8,0,0,0,5.13.77c-.53-.92-.08-1.77.8-2.47a11.55,11.55,0,0,1,3.49-1.67c1.32-.42,2.62-.75,3.72-1.14a6.72,6.72,0,0,0,1.45-.69l.3-.23c.18-.14.42-.34.61-.52a14.85,14.85,0,0,0,1.19-1.19c-.77-1.19-3.28-1.92-3.1-4.76l8.08,2.59c.95-1.62-3.75-7.41,1.8-5.54-1.09-.65-2.72-1.64-2.06-2.72,9-2.68,15.32-9.09,22.27-14.85s14.54-10.76,25.43-10.14c-3.49-1-2.3-2.08-.82-3.16-1.35.1-1.86-2.93-3.09-4.41,3,.12,6.09.29,9.12.48-.83-2.6.81-3.74,2.41-4.8s3.17-2,2.19-4.4l-1.54,2c-.22-3.37-2.87-5.64-6-7.89s-6.6-4.46-8.43-7.84c.25,3.85-3.09,3-6.54,2.6s-6.93-.2-6.78,5.5c-2-.58-.41-2.69-2-3.78.53,3.59-.6,5.16-4.25,5.83l-.13-.89c-7.47,6-12.68,5.66-22.7,10.26l2.87,2.6c-2.17,1-3.26.28-4.7.15,1.25,6.19,5.44-3.56,7.21,3-3.49-2.23-6.82.13-10.06,2.39s-6.47,4.31-10,1.48c-2.86,2.13,3.5,2.84.65,5l-2.2-1.3,1.16,3c-2.14,1-4.89-.57-6.21-2.09.6-.16.93-1.44,1.3-2-4.11-.3-6.16,6.06-7.52,6,1.2-.35,2.4-.68,3.6-1A37.3,37.3,0,0,1,59.28,96l-.68.68-.18.16-.27.25-.56.5-2.28,2c-3.05,2.6-6.17,5.23-9.23,7.89-1.52,1.32-3,2.66-4.47,4s-2.73,2.71-3.94,4.06a42.77,42.77,0,0,0-3.23,4,21,21,0,0,0-1.23,2,17.15,17.15,0,0,0-.82,1.91l2.87-.22A9.9,9.9,0,0,1,32.77,127a14.34,14.34,0,0,1-3.25,2.12c-.6.32-1.23.65-1.88,1a12.32,12.32,0,0,0-1.82,1.26,15,15,0,0,0-3.47,4l-.36-.26a2.54,2.54,0,0,1,.59,2.33,6,6,0,0,1-.55,1.29,6.06,6.06,0,0,1-1,1.3c-.82-.7-2.88.17-4.9,1s-4,1.75-4.82.72c0,3.28.37,3.92,1.46,4.25a30,30,0,0,1,5.88,1.46c-1.56.55-3.12,1.1-4.65,1.68,2.6.7,4.3.37,3.08,3.23-.7-.88-2.5-.06-4.33.8s-3.71,1.74-5,.72c-3,2.24-4,4-4.41,5.35a5.44,5.44,0,0,0,.5,3.33C4.57,164.51,5,166,0,169.84c4,.27,5.23-2.06,6-4.11s.92-3.89,1.56-3.25c1.77-1.31,3.17-1.19,3.94-.39a3.41,3.41,0,0,1,.19,3.7c-.35,1.32-3.1,3.51-5.53,6.31a15.61,15.61,0,0,0-2.87,4.62,6.83,6.83,0,0,0-.48,2.55,5.35,5.35,0,0,0,.6,2.6c-.28-.71-.9-.45-1.1-1.18-.42,1.83.86,2.79,2.16,3.75A7.7,7.7,0,0,1,6.25,186a3.06,3.06,0,0,1,.64,2.36c5.69-1.63,3.05,2.51,9.05-1.27a17.11,17.11,0,0,1-6.41-2.48c2,.91,5.44.52,8.6.17s6.18-.73,7.12.72a17.5,17.5,0,0,1-3.18,1.4,21.31,21.31,0,0,1-3.38,1c-.1.86.87.78,1.87.69s2-.27,1.84.57c-3.23,2.46-5.09,2.43-7.15,1.92s-4.33-1.57-7.95-1.38c-.2.64.3,1.12,1.06,1.38a11.22,11.22,0,0,0,2.6.43c1.65.14,2.44.33-1.42,2.31,5-2.41,6.21-1.84,7.25-1s1.95,1.9,7.1-.9l-4,3.29c1.14-.41,4.17-1.93,5.18-1.79q-3.5,2.25-6.9,4.26c1.78-.8,2.81-1,3.41-.77a1.85,1.85,0,0,1,1.1,1.47,5.39,5.39,0,0,0,.71,1.95,1.24,1.24,0,0,0,.91.46,4.43,4.43,0,0,0,1.79-.31c-2-.13-2.46-.62-2.51-1.16s.61-1.22,1.43-2c1.65-1.49,4.16-3.4,4.17-4.82a17.41,17.41,0,0,1,3.65-1c.79-.08,1.3.05,1.47.4.38.69-.3,2.16-1,3.8s-1.44,3.38-1.15,4.67,1.72,2.06,5.51,1.33a1.87,1.87,0,0,1-2.52-1.25c-.23-1,.42-2.29,2.57-3.4,1.5.84,3.44,2.36,3.45,4.58a11.51,11.51,0,0,0,4.8-1.77,1.84,1.84,0,0,0,.75-1.83c-.15-1.24-.59-2.67,2.3-4.41-.18,1.28.14,1.72.77,1.63a7.66,7.66,0,0,0,2.72-1.66c1.1-.88,2.37-2,3.66-3.12a26.63,26.63,0,0,1,3.83-2.83l-2.5,4.63a8.75,8.75,0,0,0,5.43-1.58,12,12,0,0,0,2.9-3.38A13.31,13.31,0,0,1,68.26,184a5,5,0,0,1,4.16-.94q-2.92,3.51-6.34,7.16l5.79-2.93q-1.32,2.61-2.75,5.25c3.67-2.63,5.69-3.77,7.61-4.31s3.67-.46,6.53-.56c-.53-1.26-.08-3.19,1-4.93a8.69,8.69,0,0,1,4.92-3.95,2,2,0,0,1,1.16,2.41c0,.58.44.68,3.79-.47a11.67,11.67,0,0,1-2.35,3.9c-1,.89-2.31,1.1-3.82-.35-.33,1.39-1.67,2.93-2.11,4.33,1.89.87,4.48.36,6.84-.44s4.49-1.89,5.87-2.26a6.21,6.21,0,0,1-3.11-.12q2.55-2,4.82-4l.57-.49.13-.12v-.09l0-.16c0-.23,0-.45,0-.68a9.52,9.52,0,0,1,.07-1.4c.32,1.41.21,2.64.39,3.78a5.76,5.76,0,0,1,.22-2.66c-.17,1.66-.29,3.33-.32,4.77a6.11,6.11,0,0,0,.52,3.28,5.22,5.22,0,0,1-.89-3.37,18.87,18.87,0,0,1-1,2.88,13.91,13.91,0,0,0-1.07,2.73c-.49.6-.83.53-1,.1a4.38,4.38,0,0,1,.2-2c.23-.81.58-1.63.74-2.05s.08-.45-.75.39l1.62-2.11a40.88,40.88,0,0,1-3.5,3c-.58.41-1,.62-.82.34a18.68,18.68,0,0,1,2.8-2.66q-5.37,4.29-11.6,8.8c.51-.79,4.7-3.7,8.58-6.64s7.64-6,10.25-7.72c1.1-.75,1.05-.66.19,0l-4.35,3.09c-3.77,2.65-8.38,5.94-10.4,7.27,3-2.24,8.06-5.76,11.29-7.86,1.6-1,2.7-1.72,2.61-1.64s-.4.28-1.15.76c-.18.1-.43.28-.71.48l-.9.64L99.64,184a6.73,6.73,0,0,1-1.16.52c-.09,0-.1,0-.12,0s0,0,0,0S98.79,184.24,98.27,184.59ZM92.58,197c-.63,0-2,.25-2.69.3s-.64-.09,1.7-.88C100,194.08,95.44,195.78,92.58,197Zm-27,40.57c-.39-1.42.87-1.81,2.81-1.71A3.17,3.17,0,0,1,65.56,237.52Zm65.82,36.35a.78.78,0,0,0,0,.22C128.76,273.48,129.7,273.76,131.38,273.87Zm4.86-.08a1.49,1.49,0,0,0-.37-1.59c.06,1-.87,1.46-2.06,1.62C134.48,274.65,135.28,275.08,136.24,273.79ZM52.88,154l-2.18,1.72c-1.52.22-1.6,0-1-.29S51.54,154.56,52.88,154Z"/><path class="cls-1" d="M68.07,227.49a6.85,6.85,0,0,1,1.79,1.18A1.5,1.5,0,0,0,68.07,227.49Z"/><path class="cls-1" d="M97.91,186.78l.08-.07-.72.91Z"/><path class="cls-1" d="M75.06,331.89a2.76,2.76,0,0,1-2.32-1.33C72.56,331.61,73,332.33,75.06,331.89Z"/><path class="cls-1" d="M156.4,258.87l-2.36,2c1.25-.69,2-.09,2.92.22C156.57,260.28,155.57,259.27,156.4,258.87Z"/><path class="cls-1" d="M188.8,271.82c.23-.59.83-.38,1-1l-.76-1.62C187.42,270,186.77,271.8,188.8,271.82Z"/><path class="cls-1" d="M163.6,269.82c1.4,2.94,2.71,1.25,4.4-.06a1,1,0,0,1-.33.13C166.57,265.45,165.08,267.64,163.6,269.82Z"/><path class="cls-1" d="M168.41,269.48a4.09,4.09,0,0,1,1.73-.77C169.7,266.93,169.29,268.64,168.41,269.48Z"/><path class="cls-1" d="M140.86,269.68c1.2.42-.94-4.09,0-3.06C140.42,262.38,136.69,273.63,140.86,269.68Z"/><polygon class="cls-1" points="169.05 279.18 166.91 275.71 167.01 279.14 169.05 279.18"/><path class="cls-1" d="M152.88,282.34l3.46-.15a1.43,1.43,0,0,1,.33-1.59C154.73,281.2,152.38,281.27,152.88,282.34Z"/><path class="cls-1" d="M156.67,280.6a3.16,3.16,0,0,0,2.21-1.59A6.68,6.68,0,0,0,156.67,280.6Z"/><polygon class="cls-1" points="165.31 281.93 164.11 281.51 161.84 282.08 165.31 281.93"/><path class="cls-1" d="M119.74,294.37l-2.93,2.36c.15,1.41,1.36,1.84,2.41.86C119.67,296.38,120.72,295.41,119.74,294.37Z"/><path class="cls-1" d="M133.79,300.72c-1.2-.43-1.59-1.24-2.57-2.27l1.69,4.67Z"/><path class="cls-1" d="M124.45,305.56c.16,1.41-3.44,5.56.69,3.64C125,307.79,127.93,305.43,124.45,305.56Z"/><path class="cls-1" d="M70.44,319.08l.93-.39,1.6-9.23C72.19,312.64,71.33,316,70.44,319.08Z"/><path class="cls-1" d="M7.86,334.23C8.4,335.55,9,336,9.64,336.09a3,3,0,0,0,1.76-.53A3.15,3.15,0,0,1,13,335c.51,0,1,.46,1.45,1.49,1.25-.34.86-1.18.47-2s-.76-1.7.38-1.88a12.17,12.17,0,0,1-2.4-.59,5.88,5.88,0,0,0-1.59-.45C10.38,331.5,9.49,332.06,7.86,334.23Z"/><path class="cls-1" d="M15.33,332.59a12.63,12.63,0,0,0,2.2.08A7.86,7.86,0,0,0,15.33,332.59Z"/><polygon class="cls-1" points="145.81 80.31 148.94 80.39 146.06 78.94 145.81 80.31"/><path class="cls-1" d="M147,72.51l3.21,4.12-1.06-4.86C148.78,72.28,148,73.27,147,72.51Z"/><path class="cls-1" d="M72.3,202.85l2.14-.4a11,11,0,0,0,3.17-.87Q74.88,202.29,72.3,202.85Z"/><path class="cls-1" d="M84.19,195.29l-.34.25q5.9-3,11.89-6.17Z"/><path class="cls-1" d="M76.47,200.62c-1.21.51.4-1-.75-.48-.24.5,3.42-1.79,5.24-2.95S83,195.9,76.47,200.62Z"/><path class="cls-2" d="M269.55,198.19l-21.56-12a6.26,6.26,0,0,1-2.21-9L363,3.32a6.5,6.5,0,0,1,10.16-.7L375.6,5.3a6.26,6.26,0,0,1,.91,7.16L278.4,195.66A6.48,6.48,0,0,1,269.55,198.19Z"/><path class="cls-2" d="M244.47,188.85S267,201.37,267,201.43c7.63,32.9-27.87,48.18-52.19,60a14.45,14.45,0,0,0,5.49-10.31c.91-10.15-4.45-19.51-6.35-29.26C210.43,204,226.85,188.67,244.47,188.85Z"/></g></g></svg>